<svg xmlns="http://www.w3.org/2000/svg" width="34" height="36" viewBox="0 0 34 36" fill="none">
  <g filter="url(#filter0_d_34_849)">
    <path d="M17.0017 0.45459L17.72 1.41162L19.0014 1.70291L18.164 2.58578L18.2375 3.72276L17.0017 3.31135L15.7659 3.72276L15.8393 2.58578L15.002 1.70291L16.2833 1.41162L17.0017 0.45459Z" fill="#FFC900"/>
    <path d="M27.5004 7.92432L28.2188 8.88134L29.5001 9.17264L28.6628 10.0555L28.7362 11.1923L27.5004 10.7811L26.2644 11.1923L26.3379 10.0555L25.5005 9.17264L26.7818 8.88134L27.5004 7.92432Z" fill="#FFC900"/>
    <path d="M6.50313 7.92432L5.78476 8.88134L4.50342 9.17264L5.34079 10.0555L5.26733 11.1923L6.50313 10.7811L7.73893 11.1923L7.66547 10.0555L8.50284 9.17264L7.2215 8.88134L6.50313 7.92432Z" fill="#FFC900"/>
    <path d="M13.0021 23.7656V23.7983C13.0023 23.9543 12.9922 24.1101 12.9721 24.2651C12.8506 25.1693 12.3771 26 11.6422 26.5995C11.4685 26.7474 11.2793 26.8788 11.0774 26.9917C10.9724 27.0477 10.8724 27.099 10.7623 27.1505C10.6568 27.1996 10.5483 27.2432 10.4373 27.2811C10.3268 27.3238 10.2133 27.3597 10.0975 27.3886C9.981 27.4221 9.86245 27.4486 9.74253 27.4678C9.62193 27.4905 9.50018 27.5061 9.37751 27.5147C9.12829 27.5394 8.87701 27.5394 8.62756 27.5147C8.50513 27.5061 8.38315 27.4905 8.26277 27.4678C8.14263 27.4486 8.02408 27.4221 7.90782 27.3886C7.79202 27.3597 7.67851 27.3238 7.56775 27.2811C7.45698 27.2432 7.34851 27.1996 7.24278 27.1505C7.13293 27.099 7.03292 27.0477 6.92788 26.9917C6.72603 26.8788 6.53677 26.7474 6.36284 26.5995C5.628 26 5.15473 25.1693 5.03321 24.2651C4.99316 23.955 4.99316 23.6415 5.03321 23.3313C5.15473 22.4273 5.628 21.5964 6.36284 20.9969C6.53677 20.849 6.72603 20.7176 6.92788 20.6047C7.03292 20.5487 7.13293 20.4975 7.24278 20.4462C7.34851 20.397 7.45698 20.3532 7.56775 20.3154C7.67851 20.2726 7.79202 20.2367 7.90782 20.2081C8.02408 20.1743 8.14263 20.1478 8.26277 20.1286C8.38315 20.1059 8.50513 20.0903 8.62756 20.082C8.87701 20.057 9.12829 20.057 9.37751 20.082C9.50018 20.0903 9.62193 20.1059 9.74253 20.1286C9.86245 20.1478 9.981 20.1743 10.0975 20.2081C10.2133 20.2367 10.3268 20.2726 10.4373 20.3154C10.5483 20.3532 10.6568 20.397 10.7623 20.4462C10.8724 20.4975 10.9724 20.5487 11.0774 20.6047C11.2793 20.7176 11.4685 20.849 11.6422 20.9969C12.3771 21.5964 12.8506 22.4273 12.9721 23.3313C12.992 23.4754 13.0021 23.6203 13.0021 23.7656Z" fill="#AE44BD"/>
    <path d="M11.6425 26.5995C11.6425 26.0838 10.4609 25.6658 9.00338 25.6658C7.54582 25.6658 6.36426 26.0838 6.36426 26.5995C6.36426 27.1152 7.54582 27.5332 9.00338 27.5332C10.4609 27.5332 11.6425 27.1152 11.6425 26.5995Z" fill="#D7DEE2"/>
    <path d="M11.6425 20.997C11.6425 20.4813 10.4609 20.0632 9.00338 20.0632C7.54582 20.0632 6.36426 20.4813 6.36426 20.997C6.36426 21.5127 7.54582 21.9309 9.00338 21.9309C10.4609 21.9309 11.6425 21.5127 11.6425 20.997Z" fill="#D7DEE2"/>
    <path d="M29.0004 23.7983C29.0006 23.9543 28.9905 24.1101 28.9704 24.2651C28.8489 25.1693 28.3754 26 27.6405 26.5995C27.4668 26.7474 27.2776 26.8788 27.0757 26.9917C26.9707 27.0477 26.8707 27.099 26.7606 27.1505C26.6551 27.1996 26.5466 27.2432 26.4356 27.2811C26.3251 27.3238 26.2116 27.3597 26.0958 27.3886C25.9795 27.4221 25.8607 27.4486 25.7408 27.4678C25.6204 27.4905 25.4985 27.5061 25.3758 27.5147C25.1266 27.5394 24.8753 27.5394 24.6259 27.5147C24.5034 27.5061 24.3814 27.4905 24.2611 27.4678H24.251C24.1343 27.4486 24.0189 27.4221 23.9061 27.3886C23.7903 27.3597 23.6768 27.3238 23.566 27.2811C23.4553 27.2432 23.3468 27.1996 23.2411 27.1505C23.1312 27.099 23.0312 27.0477 22.9262 26.9917C22.7243 26.8788 22.5351 26.7474 22.3614 26.5995C21.6263 26 21.153 25.1693 21.0315 24.2651C20.9915 23.955 20.9915 23.6415 21.0315 23.3313C21.153 22.4273 21.6263 21.5964 22.3614 20.9969C22.4463 20.927 22.5362 20.8569 22.6312 20.7915C22.7262 20.7261 22.8262 20.6654 22.9262 20.6047C23.0262 20.544 23.1312 20.4975 23.2411 20.4462C23.3468 20.397 23.4553 20.3532 23.566 20.3154C23.6768 20.2726 23.7903 20.2367 23.9061 20.2081C24.0162 20.176 24.1279 20.1495 24.2409 20.1286H24.2611C24.3814 20.1059 24.5034 20.0903 24.6259 20.082C24.8753 20.057 25.1266 20.057 25.3758 20.082C25.4985 20.0903 25.6204 20.1059 25.7408 20.1286C25.8607 20.1478 25.9795 20.1743 26.0958 20.2081C26.2116 20.2367 26.3251 20.2726 26.4356 20.3154C26.5466 20.3532 26.6551 20.397 26.7606 20.4462C26.8707 20.4975 26.9707 20.5487 27.0757 20.6047C27.2776 20.7176 27.4668 20.849 27.6405 20.9969C28.3754 21.5964 28.8489 22.4273 28.9704 23.3313C28.9905 23.4863 29.0006 23.6421 29.0004 23.7983Z" fill="#F88F00"/>
    <path d="M27.5007 23.7982C27.5007 23.9542 27.4906 24.11 27.4705 24.2649C27.349 25.1692 26.8757 25.9999 26.1409 26.5994C25.9669 26.7472 25.7777 26.8787 25.5758 26.9915C25.4708 27.0475 25.3708 27.0988 25.2609 27.1503C25.1552 27.1995 25.0467 27.2431 24.9359 27.2809C24.8252 27.3236 24.7117 27.3595 24.5959 27.3884C24.4831 27.422 24.3677 27.4485 24.251 27.4677C24.1343 27.4485 24.0189 27.422 23.9061 27.3884C23.7903 27.3595 23.6768 27.3236 23.566 27.2809C23.4553 27.2431 23.3468 27.1995 23.2411 27.1503C23.1312 27.0988 23.0312 27.0475 22.9262 26.9915C22.7243 26.8787 22.5351 26.7472 22.3614 26.5994C21.6263 25.9999 21.153 25.1692 21.0315 24.2649C20.9915 23.9548 20.9915 23.6413 21.0315 23.3312C21.153 22.4272 21.6263 21.5962 22.3614 20.9968C22.4463 20.9269 22.5362 20.8568 22.6312 20.7914C22.7262 20.726 22.8262 20.6653 22.9262 20.6046C23.0262 20.5439 23.1312 20.4973 23.2411 20.446C23.3468 20.3968 23.4553 20.353 23.566 20.3152C23.6768 20.2725 23.7903 20.2366 23.9061 20.2079C24.0162 20.1759 24.1279 20.1494 24.2409 20.1284H24.251C24.3677 20.1477 24.4831 20.1744 24.5959 20.2079C24.7117 20.2366 24.8252 20.2725 24.9359 20.3152C25.0467 20.353 25.1552 20.3968 25.2609 20.446C25.3708 20.4973 25.4708 20.5486 25.5758 20.6046C25.7777 20.7174 25.9669 20.8489 26.1409 20.9968C26.8757 21.5962 27.349 22.4272 27.4705 23.3312C27.4906 23.4861 27.5007 23.6419 27.5007 23.7982Z" fill="#FFC900"/>
    <path d="M27.6396 26.5995C27.6396 26.0838 26.458 25.6658 25.0005 25.6658C23.5429 25.6658 22.3613 26.0838 22.3613 26.5995C22.3613 27.1152 23.5429 27.5332 25.0005 27.5332C26.458 27.5332 27.6396 27.1152 27.6396 26.5995Z" fill="#D7DEE2"/>
    <path d="M27.6396 20.997C27.6396 20.4813 26.458 20.0632 25.0005 20.0632C23.5429 20.0632 22.3613 20.4813 22.3613 20.997C22.3613 21.5127 23.5429 21.9309 25.0005 21.9309C26.458 21.9309 27.6396 21.5127 27.6396 20.997Z" fill="#D7DEE2"/>
    <path d="M25.0007 16.3284C25.0007 16.4844 24.9908 16.6405 24.9707 16.7954C24.8489 17.6994 24.3757 18.5304 23.6408 19.1296C23.4669 19.2777 23.2776 19.4092 23.0758 19.5218C22.971 19.5778 22.871 19.6293 22.7609 19.6806C22.6554 19.7297 22.5467 19.7733 22.4359 19.8114C22.327 19.8541 22.2151 19.89 22.1011 19.9187H22.0961C21.9832 19.9529 21.8679 19.9794 21.751 19.9982H21.7411C21.6205 20.0208 21.4988 20.0364 21.3761 20.0448C21.2914 20.0542 21.2063 20.0587 21.1212 20.0589C21.0813 20.0627 21.0413 20.0642 21.0012 20.0634C20.9543 20.0642 20.9076 20.0627 20.8612 20.0589C20.7827 20.0589 20.7042 20.0542 20.6262 20.0448H20.6062C20.4863 20.0354 20.3712 20.0168 20.2611 19.9982H20.2412C20.1282 19.9772 20.0163 19.9507 19.9062 19.9187C19.7906 19.89 19.6771 19.8541 19.5663 19.8114C19.4556 19.7733 19.3471 19.7297 19.2414 19.6806C19.1313 19.6293 19.0315 19.5778 18.9265 19.5218C18.8214 19.4658 18.7265 19.4004 18.6315 19.3352C18.5365 19.2698 18.4466 19.1997 18.3614 19.1296C17.6266 18.5304 17.1533 17.6994 17.0316 16.7954C16.9918 16.4853 16.9918 16.1718 17.0316 15.8617C17.1533 14.9574 17.6266 14.1267 18.3614 13.5272C18.4466 13.4571 18.5365 13.3873 18.6315 13.3219C18.7265 13.2565 18.8265 13.1958 18.9265 13.1351C19.0265 13.0744 19.1313 13.0276 19.2414 12.9763C19.3471 12.9271 19.4556 12.8835 19.5663 12.8455C19.6753 12.8029 19.7872 12.767 19.9014 12.7382H19.9062C20.0192 12.7046 20.1346 12.6781 20.2513 12.6589H20.2611C20.3817 12.636 20.5037 12.6204 20.6262 12.6121C20.8754 12.5873 21.1269 12.5873 21.3761 12.6121C21.4988 12.6204 21.6205 12.636 21.7411 12.6589C21.861 12.6781 21.9796 12.7046 22.0961 12.7382C22.2116 12.767 22.3254 12.8027 22.4359 12.8455C22.5467 12.8835 22.6554 12.9271 22.7609 12.9763C22.871 13.0276 22.971 13.0791 23.0758 13.1351C23.2776 13.2479 23.4669 13.3791 23.6408 13.5272C24.3757 14.1267 24.8489 14.9574 24.9707 15.8617C24.9908 16.0164 25.0007 16.1724 25.0007 16.3284Z" fill="#354AA3"/>
    <path d="M23.5008 16.328C23.501 16.484 23.4909 16.64 23.4708 16.7949C23.3493 17.699 22.876 18.5299 22.1409 19.1292C21.9672 19.2773 21.778 19.4087 21.5761 19.5213C21.4711 19.5773 21.3711 19.6288 21.2612 19.6801C21.1555 19.7293 21.047 19.7729 20.9363 19.8109C20.8271 19.8537 20.7152 19.8896 20.6012 19.9182H20.5962C20.4868 19.9524 20.3749 19.9789 20.2611 19.9977H20.2412C20.1282 19.9768 20.0163 19.9503 19.9062 19.9182C19.7906 19.8896 19.6771 19.8537 19.5663 19.8109C19.4556 19.7729 19.3471 19.7293 19.2414 19.6801C19.1313 19.6288 19.0315 19.5773 18.9265 19.5213C18.8214 19.4653 18.7265 19.4 18.6315 19.3348C18.5365 19.2694 18.4466 19.1993 18.3614 19.1292C17.6266 18.5299 17.1533 17.699 17.0316 16.7949C16.9918 16.4848 16.9918 16.1713 17.0316 15.8612C17.1533 14.957 17.6266 14.1263 18.3614 13.5268C18.4466 13.4567 18.5365 13.3868 18.6315 13.3214C18.7265 13.256 18.8265 13.1953 18.9265 13.1346C19.0265 13.0739 19.1313 13.0271 19.2414 12.9758C19.3471 12.9267 19.4556 12.8831 19.5663 12.845C19.6753 12.8025 19.7872 12.7666 19.9014 12.7377H19.9062C20.0192 12.7042 20.1346 12.6777 20.2513 12.6584C20.368 12.6777 20.4831 12.7042 20.5962 12.7377C20.712 12.7666 20.8255 12.8023 20.9363 12.845C21.047 12.8831 21.1555 12.9267 21.2612 12.9758C21.3711 13.0271 21.4711 13.0786 21.5761 13.1346C21.778 13.2475 21.9672 13.3787 22.1409 13.5268C22.876 14.1263 23.3493 14.957 23.4708 15.8612C23.4909 16.0159 23.501 16.172 23.5008 16.328Z" fill="#5068C1"/>
    <path d="M23.64 19.1293C23.64 18.6136 22.4585 18.1956 21.0009 18.1956C19.5434 18.1956 18.3616 18.6136 18.3616 19.1293C18.3616 19.645 19.5434 20.063 21.0009 20.063C22.4585 20.063 23.64 19.645 23.64 19.1293Z" fill="#D7DEE2"/>
    <path d="M23.64 13.5272C23.64 13.0115 22.4585 12.5935 21.0009 12.5935C19.5434 12.5935 18.3616 13.0115 18.3616 13.5272C18.3616 14.0429 19.5434 14.461 21.0009 14.461C22.4585 14.461 23.64 14.0429 23.64 13.5272Z" fill="#D7DEE2"/>
    <path d="M20.8613 8.85813C20.8613 9.01415 20.8514 9.16995 20.8313 9.32489C20.7095 10.2291 20.2363 11.0599 19.5014 11.6593C19.3275 11.8072 19.1385 11.9387 18.9364 12.0515C18.8316 12.1075 18.7316 12.1588 18.6215 12.2103C18.516 12.2594 18.4075 12.303 18.2965 12.3409C18.186 12.3836 18.0722 12.4195 17.9567 12.4484C17.8402 12.4819 17.7216 12.5084 17.6017 12.5277C17.4811 12.5503 17.3594 12.5659 17.2367 12.5743C16.9875 12.5993 16.736 12.5993 16.4868 12.5743C16.3845 12.5668 16.2828 12.5544 16.1819 12.5371C16.1616 12.5362 16.1414 12.533 16.122 12.5277H16.1119C16.057 12.5183 15.9968 12.5044 15.9419 12.4903C15.8824 12.4806 15.824 12.4668 15.767 12.4484C15.6512 12.4195 15.5377 12.3836 15.4269 12.3409C15.3169 12.3035 15.207 12.2569 15.102 12.2103C14.9969 12.1635 14.8871 12.1028 14.7871 12.0515C14.6871 11.9908 14.5921 11.9301 14.4971 11.8647C14.4021 11.7993 14.3122 11.7339 14.222 11.6593C13.4872 11.0599 13.0139 10.2291 12.8922 9.32489C12.8523 9.01479 12.8523 8.70127 12.8922 8.39116C13.0139 7.48714 13.4872 6.6562 14.222 6.05673C14.396 5.90883 14.5852 5.7774 14.7871 5.66455C14.8871 5.61326 14.9919 5.55727 15.102 5.50598C15.212 5.45447 15.3169 5.41258 15.4269 5.37518C15.5377 5.33244 15.6512 5.29653 15.767 5.26789C15.8835 5.23477 16.002 5.20827 16.122 5.18839C16.1414 5.18305 16.1616 5.17984 16.1819 5.17899C16.2828 5.16168 16.3845 5.14928 16.4868 5.1418C16.5799 5.1324 16.6733 5.1277 16.7669 5.1277C16.83 5.1215 16.8937 5.1215 16.9568 5.1277C17.0502 5.1277 17.1438 5.1324 17.2367 5.1418C17.3594 5.15014 17.4811 5.16574 17.6017 5.18839C17.7216 5.20763 17.8402 5.23413 17.9567 5.26789C18.0722 5.29653 18.186 5.33244 18.2965 5.37518C18.4075 5.41301 18.516 5.45682 18.6215 5.50598C18.7316 5.55727 18.8316 5.60856 18.9364 5.66455C19.1385 5.7774 19.3275 5.90883 19.5014 6.05673C20.2363 6.6562 20.7095 7.48714 20.8313 8.39116C20.8514 8.54611 20.8613 8.70191 20.8613 8.85813Z" fill="#D13D34"/>
    <path d="M19.5014 8.85873C19.5017 9.01474 19.4916 9.17054 19.4714 9.32549C19.3497 10.2297 18.8764 11.0604 18.1416 11.6599C17.9679 11.8078 17.7786 11.9393 17.5768 12.0521C17.4717 12.1081 17.3717 12.1594 17.2616 12.2109C17.1561 12.26 17.0477 12.3036 16.9367 12.3415C16.8261 12.3842 16.7126 12.4201 16.5968 12.449C16.4803 12.4825 16.3618 12.509 16.2419 12.5283C16.203 12.5407 16.1606 12.5407 16.122 12.5283H16.1119C16.057 12.5189 15.9968 12.505 15.9419 12.4909C15.8824 12.4812 15.824 12.4673 15.767 12.449C15.6512 12.4201 15.5377 12.3842 15.4269 12.3415C15.3169 12.3041 15.207 12.2575 15.102 12.2109C14.9969 12.1641 14.8871 12.1034 14.7871 12.0521C14.6871 11.9914 14.5921 11.9307 14.4971 11.8653C14.4021 11.7999 14.3122 11.7345 14.222 11.6599C13.4872 11.0604 13.0139 10.2297 12.8922 9.32549C12.8523 9.01538 12.8523 8.70186 12.8922 8.39175C13.0139 7.48773 13.4872 6.6568 14.222 6.05732C14.396 5.90943 14.5852 5.77799 14.7871 5.66515C14.8871 5.61385 14.9919 5.55786 15.102 5.50657C15.212 5.45506 15.3169 5.41317 15.4269 5.37577C15.5377 5.33303 15.6512 5.29713 15.767 5.26849C15.8835 5.23536 16.002 5.20886 16.122 5.18898C16.1606 5.17659 16.203 5.17659 16.2419 5.18898C16.3618 5.20822 16.4803 5.23472 16.5968 5.26849C16.7126 5.29713 16.8261 5.33303 16.9367 5.37577C17.0477 5.4136 17.1561 5.45741 17.2616 5.50657C17.3717 5.55786 17.4717 5.60915 17.5768 5.66515C17.7786 5.77799 17.9679 5.90943 18.1416 6.05732C18.8764 6.6568 19.3497 7.48773 19.4714 8.39175C19.4916 8.5467 19.5017 8.7025 19.5014 8.85873Z" fill="#F85B44"/>
    <path d="M19.5011 11.6596C19.5011 11.1439 18.3196 10.7258 16.862 10.7258C15.4045 10.7258 14.2229 11.1439 14.2229 11.6596C14.2229 12.1753 15.4045 12.5933 16.862 12.5933C18.3196 12.5933 19.5011 12.1753 19.5011 11.6596Z" fill="#D7DEE2"/>
    <path d="M19.5011 6.05678C19.5011 5.54108 18.3196 5.12305 16.862 5.12305C15.4045 5.12305 14.2229 5.54108 14.2229 6.05678C14.2229 6.57248 15.4045 6.99051 16.862 6.99051C18.3196 6.99051 19.5011 6.57248 19.5011 6.05678Z" fill="#D7DEE2"/>
    <path d="M21.0011 23.7983C21.0018 23.9152 20.9952 24.0321 20.981 24.1483C20.9801 24.1859 20.9768 24.2234 20.9711 24.2603C20.9611 24.3398 20.946 24.4144 20.9311 24.4892C20.9105 24.6012 20.8821 24.7119 20.8459 24.8207C20.8153 24.9286 20.7768 25.0348 20.7311 25.1381C20.6906 25.2417 20.6436 25.343 20.591 25.4415C20.5361 25.5443 20.4812 25.6377 20.4212 25.7356C20.3761 25.801 20.326 25.8664 20.2761 25.9318C20.1965 26.0506 20.1045 26.1616 20.0013 26.2633C19.3593 26.9495 18.4695 27.3915 17.5015 27.5052C17.1694 27.5426 16.8337 27.5426 16.5016 27.5052C15.5334 27.3915 14.6438 26.9495 14.0019 26.2633C13.8435 26.1009 13.7028 25.9243 13.5819 25.7356C13.522 25.6377 13.4671 25.5443 13.4119 25.4415C13.3593 25.343 13.3126 25.2417 13.2721 25.1381C13.2263 25.0348 13.1879 24.9286 13.157 24.8207C13.121 24.7119 13.0927 24.6012 13.0721 24.4892C13.057 24.4144 13.0421 24.3398 13.032 24.2603C13.0279 24.234 13.0263 24.2075 13.027 24.181C13.0226 24.1708 13.0208 24.1594 13.0219 24.1483C13.008 24.0321 13.0011 23.9152 13.002 23.7983V23.7656C13.0011 23.6593 13.0078 23.5533 13.0219 23.448C13.0229 23.4106 13.0263 23.3732 13.032 23.336C13.0421 23.2567 13.057 23.1819 13.0721 23.1073C13.0927 22.9951 13.121 22.8844 13.157 22.7758C13.1879 22.6677 13.2263 22.5617 13.2721 22.4583C13.3126 22.3548 13.3593 22.2535 13.4119 22.1548C13.4671 22.052 13.522 21.9588 13.5819 21.8607C13.7028 21.6722 13.8435 21.4955 14.0019 21.333C14.6438 20.6468 15.5334 20.2048 16.5016 20.0911C16.8337 20.0539 17.1694 20.0539 17.5015 20.0911C18.4695 20.2048 19.3593 20.6468 20.0013 21.333C20.1596 21.4955 20.3004 21.6722 20.4212 21.8607C20.4812 21.9588 20.5361 22.052 20.591 22.1548C20.6436 22.2535 20.6906 22.3548 20.7311 22.4583C20.7768 22.5617 20.8153 22.6677 20.8459 22.7758C20.8821 22.8844 20.9105 22.9951 20.9311 23.1073C20.946 23.1819 20.9611 23.2567 20.9711 23.336C20.9768 23.3732 20.9801 23.4106 20.981 23.448C20.9952 23.5642 21.0018 23.6811 21.0011 23.7983Z" fill="#00B7F6"/>
    <path d="M21.0012 23.7981C21.0012 22.4369 20.5533 21.3335 20.0013 21.3335C19.4491 21.3335 19.0012 22.4369 19.0012 23.7981C19.0012 25.1593 19.4491 26.2627 20.0013 26.2627C20.5533 26.2627 21.0012 25.1593 21.0012 23.7981Z" fill="#D7DEE2"/>
    <path d="M15.0017 23.7981C15.0017 22.4369 14.554 21.3335 14.0018 21.3335C13.4496 21.3335 13.002 22.4369 13.002 23.7981C13.002 25.1593 13.4496 26.2627 14.0018 26.2627C14.554 26.2627 15.0017 25.1593 15.0017 23.7981Z" fill="#D7DEE2"/>
    <path d="M17.0015 16.3285C17.0024 16.4456 16.9958 16.5625 16.9816 16.6788C16.9807 16.7162 16.9775 16.7536 16.9715 16.7908C16.9617 16.87 16.9466 16.9448 16.9315 17.0194C16.9109 17.1316 16.8825 17.2423 16.8466 17.3509C16.8159 17.4591 16.7775 17.5651 16.7317 17.6685C16.691 17.7719 16.6443 17.8732 16.5917 17.972C16.5367 18.0746 16.4816 18.168 16.4216 18.266C16.3768 18.3314 16.3266 18.3968 16.2768 18.462C16.1971 18.5809 16.1049 18.692 16.0017 18.7935C15.3597 19.48 14.4702 19.9219 13.5021 20.0354C13.1699 20.0728 12.8344 20.0728 12.5023 20.0354C11.534 19.9219 10.6445 19.48 10.0025 18.7935C9.84395 18.6313 9.70343 18.4545 9.5826 18.266C9.52264 18.168 9.46748 18.0746 9.41256 17.972C9.35992 17.8732 9.31324 17.7719 9.2725 17.6685C9.22673 17.5651 9.18851 17.4591 9.15762 17.3509C9.12169 17.2423 9.09331 17.1316 9.07271 17.0194C9.04823 16.907 9.03152 16.7931 9.0226 16.6788C8.99605 16.4458 8.99605 16.2112 9.0226 15.9784C9.03152 15.8639 9.04823 15.75 9.07271 15.6375C9.09331 15.5255 9.12169 15.4146 9.15762 15.3061C9.18851 15.1979 9.22673 15.0919 9.2725 14.9887C9.31324 14.885 9.35992 14.7837 9.41256 14.6852C9.46748 14.5824 9.52264 14.489 9.5826 14.3909C9.70343 14.2024 9.84395 14.0257 10.0025 13.8635C10.6445 13.177 11.534 12.735 12.5023 12.6216C12.8344 12.5842 13.1699 12.5842 13.5021 12.6216C14.4702 12.735 15.3597 13.177 16.0017 13.8635C16.1603 14.0257 16.301 14.2024 16.4216 14.3909C16.4816 14.489 16.5367 14.5824 16.5917 14.6852C16.6443 14.7837 16.691 14.885 16.7317 14.9887C16.7775 15.0919 16.8159 15.1979 16.8466 15.3061C16.8825 15.4146 16.9109 15.5255 16.9315 15.6375C16.9466 15.7123 16.9617 15.7869 16.9715 15.8662C16.9775 15.9034 16.9807 15.9408 16.9816 15.9784C16.9958 16.0947 17.0024 16.2116 17.0015 16.3285Z" fill="#5AB862"/>
    <path d="M17.0017 16.3284C17.0017 14.9672 16.554 13.8638 16.0018 13.8638C15.4496 13.8638 15.002 14.9672 15.002 16.3284C15.002 17.6895 15.4496 18.793 16.0018 18.793C16.554 18.793 17.0017 17.6895 17.0017 16.3284Z" fill="#D7DEE2"/>
    <path d="M11.0024 16.3284C11.0024 14.9672 10.5548 13.8638 10.0025 13.8638C9.45032 13.8638 9.00269 14.9672 9.00269 16.3284C9.00269 17.6895 9.45032 18.793 10.0025 18.793C10.5548 18.793 11.0024 17.6895 11.0024 16.3284Z" fill="#D7DEE2"/>
    <path d="M19.4785 1.56334C19.4263 1.40712 19.2899 1.28786 19.1197 1.24918L18.0198 0.999343L17.4113 0.186575C17.3129 0.068817 17.1618 0 17.0019 0C16.8419 0 16.6908 0.068817 16.5924 0.186575L15.9826 0.999343L14.8827 1.24918C14.7122 1.28786 14.576 1.4069 14.5234 1.56313C14.471 1.71936 14.5099 1.8899 14.6261 2.01258L15.3262 2.75076L15.2672 3.69475C15.2573 3.85098 15.3322 4.00143 15.4665 4.09525C15.6006 4.18929 15.7761 4.21408 15.934 4.16151L17.0019 3.80674L18.0697 4.16193C18.2278 4.21451 18.4033 4.18972 18.5375 4.0959C18.6716 4.00186 18.7464 3.8514 18.7368 3.69518L18.6761 2.75119L19.3762 2.01301C19.4925 1.89033 19.5314 1.71957 19.4785 1.56334ZM17.7898 2.27545C17.7024 2.3682 17.6577 2.4896 17.6653 2.61291L17.6934 3.04526L17.1698 2.87108C17.0614 2.83432 16.9426 2.83432 16.8339 2.87108L16.3105 3.04526L16.3384 2.61291C16.3462 2.4896 16.3013 2.3682 16.2139 2.27545L15.9265 1.97283L16.402 1.86447C16.5204 1.83754 16.6238 1.77108 16.6934 1.67768L17.0019 1.26777L17.3104 1.67961C17.3799 1.773 17.4836 1.83947 17.6019 1.86639L18.0772 1.97475L17.7898 2.27545Z" fill="black"/>
    <path d="M29.6177 8.71842L28.5178 8.46858L27.908 7.65581C27.8096 7.53806 27.6585 7.46924 27.4985 7.46924C27.3386 7.46924 27.1875 7.53806 27.0891 7.65581L26.4792 8.46858L25.3794 8.71842C25.2089 8.7571 25.0725 8.87614 25.0201 9.03237C24.9674 9.1886 25.0066 9.35914 25.1228 9.48182L25.8227 10.22L25.7652 11.1648C25.7556 11.3213 25.8304 11.4715 25.9645 11.5656C26.0987 11.6594 26.2742 11.6844 26.4321 11.6318L27.5001 11.2768L28.568 11.6322C28.7259 11.6848 28.9014 11.6598 29.0355 11.566C29.1696 11.4722 29.2445 11.3217 29.2348 11.1653L29.1744 10.2213L29.8743 9.4831C29.9905 9.36064 30.0294 9.19009 29.977 9.03386C29.9246 8.87764 29.7882 8.75838 29.6177 8.71991V8.71842ZM28.2879 9.74554C28.2007 9.83851 28.1558 9.95969 28.1634 10.0832L28.1915 10.5154L27.6681 10.3414C27.5594 10.3046 27.4406 10.3046 27.3322 10.3414L26.8086 10.5154L26.8367 10.0832C26.8443 9.95969 26.7994 9.83851 26.7122 9.74554L26.4248 9.44313L26.9001 9.33478C27.0184 9.30764 27.1221 9.24138 27.1916 9.14799L27.5001 8.73808L27.8084 9.14991C27.878 9.24309 27.9816 9.30956 28.1 9.3367L28.5753 9.44484L28.2879 9.74554Z" fill="black"/>
    <path d="M4.76822 11.1643C4.75838 11.3208 4.83322 11.471 4.96733 11.565C5.10143 11.6589 5.27719 11.6839 5.4351 11.6313L6.50292 11.2763L7.57075 11.6317C7.72866 11.6843 7.90441 11.6593 8.03852 11.5655C8.17263 11.4716 8.24746 11.3212 8.23762 11.1647L8.17721 10.2208L8.87704 9.48258C8.99352 9.36012 9.03243 9.18957 8.98002 9.03334C8.92738 8.87712 8.79122 8.75786 8.62072 8.71939L7.52086 8.46956L6.91097 7.65679C6.81256 7.53903 6.66152 7.47021 6.50155 7.47021C6.34158 7.47021 6.19054 7.53903 6.09191 7.65679L5.48201 8.46956L4.38215 8.71939C4.21188 8.75786 4.07549 8.87712 4.02285 9.03334C3.97045 9.18957 4.00958 9.36012 4.12584 9.48258L4.82567 10.2208L4.76822 11.1643ZM5.9031 9.33469C6.02119 9.30776 6.12486 9.24129 6.19443 9.1479L6.50292 8.73756L6.81142 9.14939C6.88099 9.24257 6.98466 9.30904 7.10297 9.33618L7.5783 9.44432L7.29086 9.74695C7.20344 9.83991 7.15881 9.96109 7.16637 10.0844L7.19429 10.5168L6.6709 10.3426C6.56243 10.306 6.44342 10.306 6.33495 10.3426L5.81156 10.5168L5.83948 10.0844C5.84703 9.96109 5.80241 9.83991 5.71499 9.74695L5.42755 9.44432L5.9031 9.33469Z" fill="black"/>
    <path d="M27.9776 20.6565C27.9747 20.6537 27.9735 20.6499 27.9701 20.6471C27.9666 20.6443 27.9495 20.6321 27.9396 20.6242C27.8655 20.5644 27.7895 20.508 27.7117 20.4528C27.6781 20.4291 27.6446 20.4062 27.6117 20.3823C27.5346 20.331 27.4552 20.2821 27.3746 20.2352C27.3366 20.2134 27.2991 20.1914 27.2606 20.1705C27.1808 20.1265 27.0991 20.0852 27.0158 20.0467C26.9741 20.0271 26.9322 20.0079 26.8897 19.9897C26.8077 19.9542 26.7251 19.9207 26.6398 19.8895C26.5896 19.8721 26.5439 19.8561 26.4953 19.8399C26.4143 19.8132 26.3333 19.7875 26.2507 19.7651C26.1928 19.7493 26.1342 19.7366 26.0763 19.7232C26.0003 19.7054 25.9264 19.6877 25.8479 19.6736C25.7694 19.6597 25.6939 19.6507 25.6168 19.6409C25.5548 19.633 25.4939 19.6227 25.4314 19.6172C25.2888 19.6041 25.1449 19.5967 25.0005 19.5967C24.8561 19.5967 24.7119 19.6041 24.5696 19.6172C24.5071 19.6227 24.446 19.633 24.384 19.6409C24.3071 19.6507 24.2295 19.6601 24.153 19.6736C24.0766 19.6873 24.0032 19.7054 23.9247 19.7232C23.8665 19.7366 23.8082 19.7493 23.75 19.7651C23.6677 19.7875 23.5866 19.8119 23.5056 19.8399C23.4766 19.8497 23.4466 19.8568 23.4182 19.867C23.4837 19.8277 23.5477 19.7867 23.6111 19.7446C23.6452 19.7217 23.6786 19.698 23.7111 19.674C23.7892 19.6191 23.8652 19.5625 23.9391 19.5028C23.9491 19.4949 23.9601 19.4879 23.9695 19.48C23.9791 19.4721 23.9741 19.4733 23.9771 19.4706C24.9446 18.6764 25.4994 17.5315 25.4994 16.3285C25.4994 15.1255 24.9446 13.9806 23.9771 13.1864C23.9741 13.1836 23.9732 13.18 23.9695 13.1772C23.9661 13.1742 23.9491 13.1623 23.9391 13.1541C23.8652 13.0945 23.7892 13.0381 23.7111 12.983C23.6777 12.959 23.6441 12.9362 23.6111 12.9124C23.5342 12.8611 23.4546 12.812 23.3743 12.7654C23.3363 12.7434 23.2987 12.7214 23.2601 12.7004C23.1802 12.6566 23.0985 12.6154 23.0152 12.5767C22.9738 12.557 22.9317 12.538 22.8893 12.5198C22.8072 12.4844 22.7248 12.4506 22.6392 12.4194C22.5893 12.4021 22.5433 12.3863 22.4948 12.3698C22.4138 12.3433 22.3328 12.3177 22.2504 12.2952C22.1922 12.2794 22.1339 12.2668 22.0758 12.2531C21.9998 12.2354 21.9259 12.2176 21.8474 12.2037C21.7689 12.1896 21.6933 12.1809 21.6165 12.171C21.5544 12.1631 21.4933 12.1529 21.4309 12.1471C21.2894 12.1341 21.1455 12.1266 21.0011 12.1266C20.8564 12.1266 20.7125 12.1341 20.5701 12.1471C20.5074 12.1529 20.4466 12.1631 20.3845 12.171C20.3076 12.1809 20.2301 12.1901 20.1536 12.2037C20.0772 12.2172 20.0035 12.2354 19.925 12.2531C19.8671 12.2668 19.8085 12.2794 19.7506 12.2952C19.6682 12.3177 19.5872 12.3418 19.5062 12.3698C19.4561 12.3863 19.4092 12.4021 19.3611 12.4198C19.2771 12.4506 19.1947 12.4844 19.1112 12.5198C19.0686 12.538 19.0263 12.557 18.9842 12.5767C18.9013 12.616 18.8196 12.6573 18.7398 12.7004C18.7013 12.7214 18.6638 12.7434 18.6258 12.7654C18.5453 12.812 18.4658 12.8611 18.3887 12.9124C18.3548 12.9353 18.3212 12.959 18.2887 12.983C18.2109 13.0381 18.1349 13.0945 18.0608 13.1541C18.0509 13.1623 18.0399 13.1691 18.0303 13.1772C18.021 13.1851 18.0258 13.1836 18.0228 13.1864C17.604 13.5333 17.2577 13.9496 17.0014 14.4144C16.965 14.349 16.9266 14.2845 16.887 14.221C16.8646 14.1851 16.8414 14.1501 16.8174 14.1146C16.7675 14.0394 16.7174 13.9652 16.66 13.8934C16.6355 13.8616 16.6101 13.8303 16.5844 13.8C16.5256 13.7271 16.465 13.6562 16.4011 13.5871C16.3927 13.5777 16.3851 13.5675 16.3767 13.5585C16.3682 13.5497 16.37 13.5549 16.3675 13.5521C16.1299 13.301 15.8615 13.077 15.5677 12.8849L15.6116 12.8951C15.6693 12.9109 15.7276 12.9235 15.7858 12.9372C15.8617 12.9543 15.9357 12.9727 16.0146 12.9866C16.0936 13.0007 16.1677 13.0095 16.2446 13.0193C16.3066 13.0272 16.3682 13.0375 16.4311 13.0432C16.5735 13.0563 16.7174 13.0637 16.862 13.0637C17.0065 13.0637 17.1499 13.0563 17.293 13.0432C17.3559 13.0375 17.417 13.0272 17.4795 13.0193C17.5559 13.0095 17.6328 13.0003 17.7088 12.9866C17.7848 12.9731 17.8619 12.9543 17.9379 12.9372C17.9965 12.9235 18.0544 12.9109 18.1118 12.8951C18.1949 12.8727 18.2759 12.8485 18.3562 12.8205C18.4063 12.8041 18.4562 12.7883 18.5018 12.7705C18.5858 12.7397 18.6684 12.706 18.7517 12.6705C18.7942 12.6523 18.8364 12.6333 18.8782 12.6137C18.9618 12.5743 19.0432 12.5333 19.1231 12.4895C19.1618 12.469 19.1993 12.4474 19.2366 12.4254C19.3172 12.3788 19.3966 12.3322 19.4742 12.2779C19.5083 12.255 19.5417 12.2313 19.5742 12.2074C19.6518 12.1522 19.7282 12.0958 19.8021 12.0362L19.8325 12.0131C19.8355 12.0103 19.8371 12.0067 19.8401 12.0039C20.8077 11.2097 21.3624 10.0649 21.3624 8.86184C21.3624 7.65883 20.8077 6.51394 19.8401 5.71977C19.8371 5.71699 19.8355 5.71314 19.8325 5.71037L19.8012 5.68386C19.727 5.62402 19.6511 5.5676 19.5733 5.51246C19.5396 5.48874 19.5062 5.46587 19.4733 5.44194C19.3954 5.39064 19.3163 5.34149 19.2357 5.2949C19.1982 5.27289 19.1602 5.25109 19.1222 5.22993C19.0416 5.18612 18.9599 5.14487 18.8773 5.10619C18.8357 5.08674 18.7933 5.0675 18.7512 5.04934C18.6693 5.01386 18.5867 4.98031 18.5013 4.94889C18.4512 4.93158 18.4052 4.91576 18.3569 4.89952C18.2759 4.87281 18.1949 4.84716 18.1118 4.82472C18.0544 4.80891 17.9958 4.7963 17.9374 4.78283C17.8619 4.76509 17.7873 4.74735 17.7095 4.73325C17.6314 4.71936 17.5555 4.71038 17.4779 4.70055C17.4163 4.69264 17.3555 4.68238 17.293 4.67683C17.1515 4.66422 17.0065 4.65674 16.862 4.65674C16.7174 4.65674 16.5735 4.66422 16.4311 4.67726C16.3682 4.68281 16.3075 4.69307 16.2455 4.70098C16.1682 4.71081 16.0906 4.72021 16.0146 4.73368C15.9386 4.74735 15.8617 4.76552 15.7862 4.78326C15.7276 4.79672 15.6693 4.80933 15.6116 4.82515C15.5288 4.84759 15.4482 4.87195 15.3672 4.89995C15.3173 4.91619 15.2702 4.93222 15.2223 4.94996C15.1383 4.98073 15.0557 5.01429 14.9722 5.04976C14.9298 5.06793 14.8877 5.08717 14.8459 5.10683C14.7628 5.14594 14.6813 5.18719 14.6012 5.23057C14.5628 5.25151 14.5248 5.27353 14.4872 5.29533C14.4069 5.34213 14.3273 5.39107 14.2504 5.44236C14.2158 5.46523 14.1829 5.48917 14.1504 5.51289C14.0723 5.56803 13.9959 5.62445 13.9224 5.68429C13.9124 5.6922 13.9014 5.69925 13.8913 5.70716C13.8815 5.71507 13.8874 5.71379 13.8845 5.71656C12.9169 6.51074 12.3621 7.65541 12.3621 8.85864C12.3621 10.0617 12.9169 11.2063 13.8845 12.0005C13.8874 12.0035 13.8883 12.0071 13.8913 12.0099C13.8943 12.0127 13.9124 12.0249 13.9224 12.0328C13.9959 12.0926 14.0723 12.149 14.1504 12.2042C14.1838 12.2279 14.2167 12.2508 14.2504 12.2747C14.2653 12.285 14.2794 12.2956 14.2943 12.3055C12.6145 11.8314 10.7929 12.3174 9.63489 13.5487C9.63238 13.5517 9.62849 13.5525 9.62597 13.5553C9.62345 13.5581 9.60995 13.5745 9.60148 13.5837C9.5374 13.653 9.47699 13.7239 9.41794 13.7966C9.39254 13.828 9.36805 13.8592 9.34242 13.89C9.28704 13.9624 9.23509 14.0362 9.18451 14.1118C9.16094 14.1469 9.13806 14.1819 9.11609 14.2174C9.06894 14.2924 9.025 14.3685 8.98312 14.4461C8.96207 14.4854 8.94147 14.5249 8.92202 14.5647C8.88403 14.6408 8.8481 14.7177 8.81515 14.7981C8.79615 14.8449 8.77899 14.8883 8.76159 14.934C8.73299 15.0092 8.70553 15.0849 8.6815 15.1618C8.66456 15.2159 8.65106 15.2702 8.63664 15.3242C8.6181 15.3956 8.59865 15.4644 8.58355 15.5382C8.56867 15.6119 8.55906 15.6814 8.54853 15.753C8.54007 15.8107 8.52908 15.8681 8.52313 15.9269C8.50917 16.0605 8.50116 16.1945 8.50116 16.3293C8.50116 16.4644 8.50917 16.5984 8.52313 16.732C8.52908 16.7908 8.54007 16.8483 8.54853 16.906C8.55906 16.9776 8.56913 17.0494 8.58355 17.1207C8.59796 17.1923 8.6181 17.2609 8.63664 17.3347C8.65106 17.3887 8.66456 17.443 8.6815 17.4971C8.70553 17.574 8.73161 17.6497 8.76159 17.7249C8.77899 17.7717 8.79615 17.8183 8.81515 17.8613C8.8481 17.9393 8.88403 18.0162 8.92156 18.0947C8.94147 18.1344 8.96207 18.1742 8.98312 18.2133C9.025 18.2908 9.06894 18.3669 9.11609 18.4422C9.13806 18.4776 9.16094 18.5125 9.18451 18.5475C9.2344 18.6232 9.28452 18.6969 9.34242 18.7694C9.36691 18.801 9.39254 18.8324 9.41794 18.8628C9.47699 18.9356 9.5374 19.0066 9.60148 19.0756C9.60995 19.085 9.6175 19.0953 9.62597 19.104C9.63444 19.113 9.63283 19.1083 9.63604 19.1111C9.91272 19.4035 10.2315 19.6586 10.5833 19.8694C10.5549 19.8591 10.5249 19.8521 10.4958 19.8422C10.4148 19.8155 10.3338 19.7899 10.2514 19.7674C10.1933 19.7516 10.1349 19.739 10.0768 19.7255C10.0008 19.7078 9.92691 19.6901 9.84841 19.6759C9.76992 19.6621 9.6944 19.6531 9.6175 19.6433C9.55548 19.6353 9.49438 19.6251 9.4319 19.6195C9.29093 19.6041 9.14698 19.5967 9.00258 19.5967C8.85794 19.5967 8.71399 19.6041 8.57165 19.6172C8.50917 19.6227 8.44807 19.633 8.38605 19.6409C8.30915 19.6507 8.23157 19.6601 8.15514 19.6736C8.0787 19.6873 8.00524 19.7054 7.92674 19.7232C7.86861 19.7366 7.81026 19.7493 7.75213 19.7651C7.66974 19.7875 7.58873 19.8119 7.50771 19.8399C7.45782 19.8561 7.41068 19.8721 7.36285 19.8899C7.27886 19.9207 7.19625 19.9542 7.11271 19.9897C7.07038 20.0079 7.02781 20.0271 6.9857 20.0467C6.90286 20.0859 6.82139 20.1271 6.74129 20.1705C6.70284 20.1914 6.66531 20.2134 6.62732 20.2352C6.54676 20.2821 6.46735 20.3286 6.39046 20.3823C6.35636 20.4052 6.32295 20.4291 6.29045 20.4528C6.21241 20.508 6.13643 20.5644 6.06251 20.6242C6.05244 20.6321 6.04146 20.6392 6.03185 20.6471C6.02246 20.655 6.0275 20.6537 6.02452 20.6565C5.05671 21.4507 4.5022 22.5955 4.5022 23.7986C4.5022 25.0016 5.05671 26.1462 6.02452 26.9406C6.0275 26.9434 6.02841 26.947 6.03185 26.9498C6.03551 26.9526 6.05244 26.9648 6.06251 26.9727C6.13643 27.0325 6.21241 27.089 6.29045 27.1441C6.32386 27.1678 6.35727 27.1907 6.39046 27.2146C6.46781 27.2663 6.54676 27.3151 6.62778 27.3621C6.66531 27.3841 6.70284 27.4055 6.74083 27.426C6.82139 27.47 6.90286 27.511 6.9857 27.5504C7.02781 27.5698 7.07038 27.5891 7.11271 27.6076C7.19419 27.6427 7.2768 27.6763 7.36285 27.7072C7.41274 27.725 7.4592 27.7408 7.50817 27.757C7.58873 27.7838 7.66974 27.8094 7.75213 27.8318C7.80957 27.8477 7.86816 27.8603 7.92605 27.8737C8.00226 27.891 8.07618 27.9092 8.15514 27.9233C8.23409 27.9374 8.3087 27.9462 8.38513 27.956C8.44715 27.9639 8.50848 27.9742 8.57165 27.9797C8.71445 27.9928 8.85794 28.0002 9.00258 28.0002C9.14698 28.0002 9.29047 27.9928 9.4335 27.9797C9.49644 27.9742 9.558 27.9639 9.62002 27.956C9.69646 27.9462 9.77335 27.9368 9.85002 27.9233C9.92645 27.9098 10.0029 27.891 10.0789 27.8737C10.1368 27.8603 10.1954 27.8477 10.2528 27.8318C10.3354 27.8094 10.4164 27.785 10.4968 27.757C10.5469 27.7408 10.5968 27.725 10.6423 27.7072C10.7263 27.6763 10.8089 27.6427 10.8922 27.6072C10.9348 27.5891 10.9773 27.5698 11.0192 27.5504C11.1023 27.511 11.1838 27.47 11.2643 27.426C11.3023 27.4055 11.3396 27.3841 11.3771 27.3621C11.4582 27.3155 11.5371 27.2663 11.6147 27.2146C11.6488 27.1918 11.6822 27.1678 11.7147 27.1441C11.7927 27.089 11.8687 27.0325 11.9426 26.9727C11.9527 26.9648 11.9637 26.9577 11.9731 26.9498C11.9827 26.9419 11.9777 26.9434 11.9806 26.9406C12.3992 26.5944 12.7457 26.1789 13.002 25.715C13.0386 25.7808 13.0771 25.8447 13.1169 25.9088C13.1391 25.9443 13.162 25.9793 13.1855 26.0142C13.2354 26.0898 13.2855 26.1636 13.3434 26.236C13.3679 26.2679 13.3936 26.2991 13.419 26.3294C13.478 26.4023 13.5384 26.4732 13.6025 26.5423C13.611 26.5517 13.6185 26.5619 13.627 26.5707C13.6355 26.5797 13.6339 26.575 13.6368 26.5777C14.4875 27.4813 15.7132 27.9994 17.0014 27.9994C18.2896 27.9994 19.5156 27.4813 20.366 26.5777C20.369 26.575 20.3731 26.5741 20.3761 26.5707C20.379 26.5675 20.3921 26.5517 20.4006 26.5423C20.4646 26.4732 20.5251 26.4023 20.5841 26.3294C20.6095 26.2982 20.634 26.2668 20.6596 26.236C20.715 26.1642 20.767 26.0898 20.8171 26.0148C20.8411 25.9793 20.864 25.9443 20.8864 25.9084C20.926 25.8447 20.9645 25.7804 21.0011 25.715C21.2576 26.1789 21.6043 26.5946 22.0233 26.9406C22.0263 26.9434 22.0272 26.947 22.0309 26.9498C22.0343 26.9526 22.0513 26.9648 22.0613 26.9727C22.1353 27.0325 22.2112 27.089 22.2893 27.1441C22.3227 27.1678 22.3563 27.1907 22.3893 27.2146C22.4669 27.2663 22.5458 27.3151 22.6268 27.3621C22.6644 27.3841 22.7017 27.4055 22.7397 27.426C22.8202 27.47 22.9017 27.511 22.9848 27.5504C23.0266 27.5698 23.0692 27.5891 23.1118 27.6076C23.1932 27.6427 23.2756 27.6763 23.3617 27.7072C23.4116 27.725 23.4583 27.7408 23.5072 27.757C23.5876 27.7838 23.6686 27.8094 23.7512 27.8318C23.8086 27.8477 23.8672 27.8603 23.9251 27.8737C24.0011 27.891 24.075 27.9092 24.154 27.9233C24.2331 27.9374 24.3075 27.9462 24.384 27.956C24.446 27.9639 24.5075 27.9742 24.5705 27.9797C24.7135 27.9928 24.857 28.0002 25.0014 28.0002C25.146 28.0002 25.2895 27.9928 25.4323 27.9797C25.4955 27.9742 25.5568 27.9639 25.6188 27.956C25.6953 27.9462 25.7724 27.9368 25.8488 27.9233C25.9253 27.9098 26.0017 27.891 26.0779 27.8737C26.1358 27.8603 26.1944 27.8477 26.2519 27.8318C26.3342 27.8094 26.4153 27.785 26.4958 27.757C26.5457 27.7408 26.5958 27.725 26.6411 27.7072C26.7251 27.6763 26.8077 27.6427 26.8913 27.6072C26.9336 27.5891 26.9762 27.5698 27.0183 27.5504C27.1011 27.511 27.1826 27.47 27.2631 27.426C27.3011 27.4055 27.3387 27.3841 27.3762 27.3621C27.4572 27.3155 27.5362 27.2663 27.6135 27.2146C27.6476 27.1918 27.681 27.1678 27.7135 27.1441C27.7916 27.089 27.8675 27.0325 27.9415 26.9727C27.9515 26.9648 27.9625 26.9577 27.9721 26.9498C27.9815 26.9419 27.9765 26.9434 27.9795 26.9406C28.9473 26.1462 29.5018 25.0016 29.5018 23.7986C29.5018 22.5955 28.9473 21.4507 27.9795 20.6565H27.9776ZM22.2893 20.4528C22.2112 20.508 22.1353 20.5644 22.0613 20.6242C22.0513 20.6321 22.0403 20.6392 22.0309 20.6471C22.0213 20.655 22.0263 20.6537 22.0233 20.6565C21.6041 21.0031 21.2574 21.4195 21.0011 21.8843C20.9645 21.8189 20.926 21.7546 20.8864 21.6911C20.864 21.655 20.8411 21.6201 20.8171 21.5847C20.767 21.5094 20.7171 21.4353 20.6596 21.3632C20.6351 21.3316 20.6095 21.3002 20.5841 21.2699C20.5251 21.197 20.4646 21.126 20.4006 21.057C20.3921 21.0476 20.3845 21.0373 20.3761 21.0286C20.3676 21.0196 20.3697 21.0247 20.3671 21.0219C20.0893 20.7294 19.7698 20.474 19.4172 20.2632C19.4462 20.2735 19.4762 20.2806 19.5051 20.2904C19.5856 20.3171 19.6666 20.3427 19.7492 20.3652C19.8067 20.381 19.865 20.3936 19.9232 20.4071C19.9992 20.4244 20.0731 20.4426 20.152 20.4567C20.231 20.4706 20.3056 20.4795 20.382 20.4894C20.444 20.4973 20.5056 20.5075 20.5685 20.5131C20.7116 20.5261 20.8551 20.5336 20.9995 20.5336C21.1439 20.5336 21.2874 20.5261 21.4304 20.5131C21.4933 20.5075 21.5549 20.4973 21.6169 20.4894C21.6933 20.4795 21.7705 20.4701 21.8469 20.4567C21.9233 20.443 21.9998 20.4244 22.0758 20.4071C22.1339 20.3936 22.1922 20.381 22.2499 20.3652C22.3323 20.3427 22.4133 20.3184 22.4939 20.2904C22.5232 20.2806 22.5534 20.2735 22.5817 20.2632C22.5163 20.3026 22.4522 20.3432 22.3888 20.3857C22.3563 20.4052 22.3227 20.4291 22.2893 20.4528ZM20.4715 24.2023C20.4669 24.235 20.461 24.2672 20.4555 24.2995C20.4376 24.4096 20.4134 24.5186 20.3829 24.6263C20.3765 24.6496 20.371 24.6729 20.3639 24.6957C20.2822 24.962 20.1648 25.2174 20.014 25.4559L20.0012 25.4745C19.3359 24.4436 19.3359 23.1533 20.0012 22.1224L20.014 22.142C20.1648 22.3805 20.2822 22.6359 20.3639 22.902C20.371 22.9249 20.3765 22.9488 20.3829 22.9717C20.4134 23.0794 20.4376 23.1884 20.4555 23.2985C20.461 23.3307 20.4669 23.3628 20.4715 23.3955C20.5109 23.6635 20.5109 23.9353 20.4715 24.2033V24.2023ZM17.0014 26.1328C16.7254 26.1328 16.5016 26.3418 16.5016 26.5998V27.0293C15.8185 26.9372 15.18 26.6579 14.6674 26.2262C15.7798 24.7744 15.7798 22.8225 14.6674 21.3707C15.18 20.9392 15.8185 20.6597 16.5016 20.5678V20.9972C16.5016 21.2551 16.7254 21.4641 17.0014 21.4641C17.2776 21.4641 17.5015 21.2551 17.5015 20.9972V20.5678C18.1846 20.6597 18.8231 20.9392 19.3357 21.3707C18.223 22.8225 18.223 24.7744 19.3357 26.2262C18.8231 26.6579 18.1846 26.9372 17.5015 27.0293V26.5998C17.5015 26.3418 17.2776 26.1328 17.0014 26.1328ZM13.99 25.4544C13.8394 25.2161 13.7217 24.961 13.64 24.6949C13.6329 24.672 13.6274 24.6483 13.621 24.6252C13.5906 24.5177 13.5666 24.4085 13.5485 24.2984C13.543 24.2664 13.5368 24.2341 13.5325 24.2014C13.4931 23.9334 13.4931 23.6618 13.5325 23.3938C13.5368 23.3611 13.543 23.3288 13.5485 23.2965C13.5666 23.1865 13.5906 23.0775 13.621 22.9698C13.6274 22.9465 13.6329 22.9232 13.64 22.9003C13.7217 22.634 13.8391 22.3786 13.99 22.1401L14.0019 22.1224C14.6671 23.1533 14.6671 24.4436 14.0019 25.4745L13.99 25.4544ZM11.9797 20.6565C11.9767 20.6537 11.9756 20.6499 11.9722 20.6471C11.9687 20.6443 11.9516 20.6321 11.9417 20.6242C11.8676 20.5644 11.7916 20.508 11.7138 20.4528C11.6801 20.4291 11.6467 20.4062 11.6138 20.3823C11.5463 20.3357 11.4772 20.2942 11.4067 20.2521C12.4338 20.6231 13.5723 20.6231 14.5994 20.2521C14.2419 20.4646 13.9179 20.7225 13.6368 21.0187C13.6368 21.0215 13.6304 21.0224 13.6279 21.0254C13.6254 21.0281 13.6119 21.0444 13.6034 21.0538C13.5393 21.1228 13.4789 21.1938 13.4199 21.2666C13.3945 21.2979 13.37 21.3293 13.3444 21.36C13.289 21.4323 13.237 21.5062 13.1865 21.5817C13.1629 21.6167 13.14 21.6518 13.118 21.6872C13.078 21.7511 13.0395 21.8153 13.0029 21.8811C12.7459 21.4173 12.399 21.0021 11.9797 20.6565ZM7.23034 20.9869C8.32861 20.3953 9.68135 20.3953 10.7798 20.9869L10.7972 20.9972C9.68867 21.6033 8.31625 21.6033 7.20769 20.9972L7.23034 20.9869ZM9.99282 17.9846C9.84223 17.7461 9.7246 17.4909 9.6429 17.2248C9.63604 17.202 9.63055 17.1782 9.62391 17.1554C9.5937 17.0477 9.56944 16.9387 9.55136 16.8286C9.54587 16.7963 9.53992 16.764 9.53534 16.7313C9.49621 16.4633 9.49621 16.1917 9.53534 15.9237C9.53992 15.891 9.54587 15.8587 9.55136 15.8267C9.56944 15.7166 9.5937 15.6074 9.62391 15.4999C9.63055 15.4764 9.63604 15.4531 9.6429 15.4302C9.7246 15.1642 9.84223 14.9088 9.99282 14.6703L10.0024 14.6525C10.6677 15.6835 10.6677 16.9735 10.0024 18.0047L9.99282 17.9846ZM10.6677 13.9009C11.1806 13.4692 11.8188 13.1896 12.5022 13.0977V13.5273C12.5022 13.785 12.726 13.9941 13.002 13.9941C13.2782 13.9941 13.502 13.785 13.502 13.5273V13.0977C14.1852 13.1896 14.8237 13.4692 15.3363 13.9009C14.2236 15.3524 14.2236 17.3045 15.3363 18.7563C14.8237 19.1878 14.1852 19.4674 13.502 19.5593V19.1297C13.502 18.8719 13.2782 18.6629 13.002 18.6629C12.726 18.6629 12.5022 18.8719 12.5022 19.1297V19.5593C11.8188 19.4674 11.1806 19.1878 10.6677 18.7563C11.7804 17.3045 11.7804 15.3524 10.6677 13.9009ZM16.0137 14.672C16.1643 14.9105 16.2819 15.1659 16.3636 15.4322C16.3705 15.455 16.376 15.4788 16.3826 15.5016C16.4128 15.6093 16.4371 15.7185 16.4551 15.8284C16.4606 15.8607 16.4666 15.8929 16.4712 15.9256C16.5103 16.1936 16.5103 16.4653 16.4712 16.7333C16.4666 16.766 16.4606 16.7982 16.4551 16.8303C16.4371 16.9404 16.4128 17.0496 16.3826 17.1573C16.376 17.1806 16.3705 17.2039 16.3636 17.2267C16.2819 17.493 16.1643 17.7484 16.0137 17.9869L16.0016 18.0047C15.3363 16.9735 15.3363 15.6835 16.0016 14.6525L16.0137 14.672ZM18.0239 19.4706C18.0269 19.4733 18.0278 19.4772 18.0313 19.48C18.0349 19.4827 18.0518 19.4949 18.0619 19.5028C18.1358 19.5625 18.2118 19.6191 18.2899 19.674C18.3233 19.698 18.3569 19.7208 18.3899 19.7446C18.4574 19.7914 18.5263 19.8328 18.5967 19.8749C17.5697 19.5039 16.4313 19.5039 15.4043 19.8749C15.7615 19.6627 16.0851 19.405 16.3657 19.1087C16.3686 19.106 16.3725 19.1051 16.3755 19.1017C16.3785 19.0985 16.3915 19.0827 16.4 19.0733C16.4641 19.0042 16.5245 18.9333 16.5835 18.8604C16.6089 18.829 16.6334 18.7978 16.6591 18.767C16.7144 18.6952 16.7666 18.6208 16.8165 18.5456C16.8405 18.5101 16.8634 18.4753 16.8861 18.4392C16.9254 18.3757 16.9639 18.3114 17.0005 18.246C17.2577 18.7097 17.6047 19.125 18.0239 19.4706ZM22.7733 19.1399C21.6748 19.7315 20.3221 19.7315 19.2238 19.1399L19.2062 19.1297C20.3147 18.5238 21.6872 18.5238 22.7957 19.1297L22.7733 19.1399ZM23.2232 20.9869C24.3215 20.3953 25.6742 20.3953 26.7727 20.9869L26.7951 20.9972C25.6866 21.6033 24.3142 21.6033 23.2056 20.9972L23.2232 20.9869ZM19.2238 13.517C20.3221 12.9255 21.6748 12.9255 22.7733 13.517L22.7957 13.5273C21.6872 14.1334 20.3147 14.1334 19.2062 13.5273L19.2238 13.517ZM18.4013 14.1488C19.9559 15.1877 22.046 15.1877 23.6006 14.1488C24.0629 14.6275 24.362 15.2236 24.4606 15.8617H24.0006C23.7244 15.8617 23.5006 16.0707 23.5006 16.3285C23.5006 16.5864 23.7244 16.7955 24.0006 16.7955H24.4606C24.362 17.4334 24.0629 18.0297 23.6006 18.5084C22.046 17.4693 19.9559 17.4693 18.4013 18.5084C17.9393 18.0297 17.6399 17.4334 17.5415 16.7955H18.0013C18.2775 16.7955 18.5013 16.5864 18.5013 16.3285C18.5013 16.0707 18.2775 15.8617 18.0013 15.8617H17.5415C17.6399 15.2236 17.9393 14.6275 18.4013 14.1488ZM18.6368 11.6701C17.5383 12.2617 16.1856 12.2617 15.0873 11.6701L15.0672 11.6598C16.1757 11.0537 17.5481 11.0537 18.6567 11.6598L18.6368 11.6701ZM15.0873 6.04697C16.1856 5.4554 17.5383 5.4554 18.6368 6.04697L18.6567 6.0583C17.5481 6.66419 16.1757 6.66419 15.0672 6.0583L15.0873 6.04697ZM13.402 9.3254H13.8618C14.138 9.3254 14.3618 9.11638 14.3618 8.85864C14.3618 8.60068 14.138 8.39167 13.8618 8.39167H13.402C13.5002 7.75372 13.7995 7.15745 14.2618 6.67872C15.8164 7.7176 17.9065 7.7176 19.4611 6.67872C19.9232 7.15745 20.2227 7.75372 20.3216 8.39167H19.8616C19.5856 8.39167 19.3616 8.60068 19.3616 8.85864C19.3616 9.11638 19.5856 9.3254 19.8616 9.3254H20.3216C20.223 9.96334 19.9236 10.5594 19.4616 11.0383C17.9072 9.99946 15.8169 9.99946 14.2623 11.0383C13.7998 10.5598 13.5004 9.96356 13.402 9.3254ZM10.7773 26.61C9.67883 27.2016 8.32609 27.2016 7.22783 26.61L7.20769 26.5998C8.31625 25.9937 9.68867 25.9937 10.7972 26.5998L10.7773 26.61ZM11.6021 25.9783C10.0475 24.9394 7.95741 24.9394 6.40281 25.9783C5.94076 25.4995 5.64142 24.9033 5.54302 24.2653H6.00301C6.27901 24.2653 6.50282 24.0563 6.50282 23.7986C6.50282 23.5406 6.27901 23.3316 6.00301 23.3316H5.54302C5.64142 22.6936 5.94076 22.0974 6.40281 21.6186C7.95741 22.6575 10.0475 22.6575 11.6021 21.6186C12.0644 22.0974 12.3637 22.6936 12.4621 23.3316H12.0021C11.7259 23.3316 11.5021 23.5406 11.5021 23.7986C11.5021 24.0563 11.7259 24.2653 12.0021 24.2653H12.4621C12.3637 24.9033 12.0644 25.4995 11.6021 25.9783ZM26.7752 26.61C25.6767 27.2016 24.324 27.2016 23.2257 26.61L23.2056 26.5998C24.3142 25.9937 25.6866 25.9937 26.7951 26.5998L26.7752 26.61ZM27.6 25.9783C26.0457 24.9394 23.9553 24.9394 22.4007 25.9783C21.9387 25.4995 21.6393 24.9033 21.5409 24.2653H22.0009C22.2769 24.2653 22.5007 24.0563 22.5007 23.7986C22.5007 23.5406 22.2769 23.3316 22.0009 23.3316H21.5409C21.6393 22.6936 21.9387 22.0974 22.4007 21.6186C23.9553 22.6575 26.0457 22.6575 27.6 21.6186C28.0623 22.0974 28.3616 22.6936 28.46 23.3316H28.0001C27.7241 23.3316 27.5002 23.5406 27.5002 23.7986C27.5002 24.0563 27.7241 24.2653 28.0001 24.2653H28.46C28.3616 24.9033 28.0623 25.4995 27.6 25.9783Z" fill="black"/>
  </g>
  <defs>
    <filter id="filter0_d_34_849" x="0" y="0" width="34" height="36.0002" filterUnits="userSpaceOnUse" color-interpolation-filters="sRGB">
      <feFlood flood-opacity="0" result="BackgroundImageFix"/>
      <feColorMatrix in="SourceAlpha" type="matrix" values="0 0 0 0 0 0 0 0 0 0 0 0 0 0 0 0 0 0 127 0" result="hardAlpha"/>
      <feOffset dy="4"/>
      <feGaussianBlur stdDeviation="2"/>
      <feColorMatrix type="matrix" values="0 0 0 0 0 0 0 0 0 0 0 0 0 0 0 0 0 0 0.25 0"/>
      <feBlend mode="normal" in2="BackgroundImageFix" result="effect1_dropShadow_34_849"/>
      <feBlend mode="normal" in="SourceGraphic" in2="effect1_dropShadow_34_849" result="shape"/>
    </filter>
  </defs>
</svg>