<svg width="27" height="8" viewBox="0 0 27 8" fill="none" xmlns="http://www.w3.org/2000/svg">
<path d="M4.51318 7H0.769043V0.53125H4.36816V1.57275H2.02148V3.2207H4.20117V4.25781H2.02148V5.96289H4.51318V7ZM7.96289 4.94336H5.49756V4.06445H7.96289V4.94336ZM16.3257 7H15.104V4.36328C15.104 3.60449 14.8286 3.2251 14.2778 3.2251C14.0229 3.2251 13.8091 3.34082 13.6362 3.57227C13.4663 3.80078 13.3813 4.07617 13.3813 4.39844V7H12.1597V4.31494C12.1597 3.58838 11.8857 3.2251 11.3379 3.2251C11.0771 3.2251 10.8633 3.3335 10.6963 3.55029C10.5293 3.76416 10.4458 4.05127 10.4458 4.41162V7H9.21973V2.38135H10.4458V3.11084H10.459C10.8047 2.55127 11.2983 2.27148 11.9399 2.27148C12.5903 2.27148 13.0327 2.56738 13.2671 3.15918C13.6187 2.56738 14.1328 2.27148 14.8096 2.27148C15.8203 2.27148 16.3257 2.89258 16.3257 4.13477V7ZM17.644 2.67578C17.8521 2.55566 18.1216 2.45898 18.4526 2.38574C18.7837 2.30957 19.0811 2.27148 19.3447 2.27148C20.5928 2.27148 21.2168 2.9043 21.2168 4.16992V7H20.0479V6.31885H20.0259C19.7153 6.84912 19.2539 7.11426 18.6416 7.11426C18.1963 7.11426 17.8433 6.98975 17.5825 6.74072C17.3218 6.48877 17.1914 6.15186 17.1914 5.72998C17.1914 4.84814 17.7158 4.33691 18.7646 4.19629L20.0522 4.02051C20.0522 3.43164 19.7651 3.13721 19.1909 3.13721C18.6431 3.13721 18.1274 3.30859 17.644 3.65137V2.67578ZM19.1338 4.89062C18.6064 4.95801 18.3428 5.19385 18.3428 5.59814C18.3428 5.77979 18.4058 5.92773 18.5317 6.04199C18.6577 6.15625 18.8276 6.21338 19.0415 6.21338C19.3345 6.21338 19.5762 6.11084 19.7666 5.90576C19.957 5.69775 20.0522 5.43701 20.0522 5.12354V4.77197L19.1338 4.89062ZM22.3066 0.86084C22.3066 0.67334 22.3726 0.516602 22.5044 0.390625C22.6392 0.264648 22.812 0.20166 23.0229 0.20166C23.228 0.20166 23.3994 0.264648 23.5371 0.390625C23.6748 0.513672 23.7437 0.67041 23.7437 0.86084C23.7437 1.05127 23.6748 1.20947 23.5371 1.33545C23.4023 1.46143 23.231 1.52441 23.0229 1.52441C22.8149 1.52441 22.6436 1.45996 22.5088 1.33105C22.374 1.20215 22.3066 1.04541 22.3066 0.86084ZM22.4033 7V2.38135H23.625V7H22.4033ZM24.873 7V0.166504H26.0947V7H24.873Z" fill="#999999"/>
</svg>
