<svg width="27" height="8" viewBox="0 0 27 8" fill="none" xmlns="http://www.w3.org/2000/svg">
<path d="M2.02148 4.70605V7H0.769043V0.53125H2.90479C4.48096 0.53125 5.26904 1.20654 5.26904 2.55713C5.26904 3.21045 5.03027 3.73633 4.55273 4.13477C4.07812 4.5332 3.48047 4.72363 2.75977 4.70605H2.02148ZM2.02148 1.52881V3.72607H2.65869C3.52295 3.72607 3.95508 3.35254 3.95508 2.60547C3.95508 1.8877 3.53174 1.52881 2.68506 1.52881H2.02148ZM10.4326 7H9.21094V4.36768C9.21094 3.60596 8.93262 3.2251 8.37598 3.2251C8.08887 3.2251 7.85449 3.3335 7.67285 3.55029C7.49414 3.76416 7.40479 4.03662 7.40479 4.36768V7H6.17871V0.166504H7.40479V3.09326H7.41797C7.76953 2.54541 8.25293 2.27148 8.86816 2.27148C9.91113 2.27148 10.4326 2.90137 10.4326 4.16113V7ZM11.3643 4.71924C11.3643 3.96338 11.5869 3.36719 12.0322 2.93066C12.4775 2.49121 13.0811 2.27148 13.8428 2.27148C14.5781 2.27148 15.1582 2.48682 15.583 2.91748C16.0107 3.34521 16.2246 3.91943 16.2246 4.64014C16.2246 5.39014 16.0034 5.99072 15.561 6.44189C15.1216 6.89014 14.5254 7.11426 13.7725 7.11426C13.0342 7.11426 12.4482 6.89893 12.0146 6.46826C11.5811 6.03467 11.3643 5.45166 11.3643 4.71924ZM12.6035 4.70166C12.6035 5.67139 13.0063 6.15625 13.812 6.15625C14.5884 6.15625 14.9766 5.65967 14.9766 4.6665C14.9766 3.70557 14.5869 3.2251 13.8076 3.2251C13.4268 3.2251 13.1309 3.35693 12.9199 3.62061C12.709 3.88135 12.6035 4.2417 12.6035 4.70166ZM21.5024 7H20.2808V4.41162C20.2808 3.62061 19.9951 3.2251 19.4238 3.2251C19.1367 3.2251 18.9023 3.3335 18.7207 3.55029C18.542 3.76416 18.4526 4.03662 18.4526 4.36768V7H17.2266V2.38135H18.4526V3.12402H18.4658C18.8057 2.55566 19.3052 2.27148 19.9644 2.27148C20.9897 2.27148 21.5024 2.90576 21.5024 4.17432V7ZM26.7231 5.03564H23.6382C23.688 5.8208 24.1333 6.21338 24.9741 6.21338C25.4868 6.21338 25.9438 6.07861 26.3452 5.80908V6.74072C25.9175 6.98975 25.3682 7.11426 24.6973 7.11426C23.9795 7.11426 23.4199 6.90625 23.0186 6.49023C22.6201 6.07422 22.4209 5.49268 22.4209 4.74561C22.4209 4.01318 22.6348 3.41846 23.0625 2.96143C23.4932 2.50146 24.0308 2.27148 24.6753 2.27148C25.3198 2.27148 25.8223 2.46924 26.1826 2.86475C26.543 3.26025 26.7231 3.80371 26.7231 4.49512V5.03564ZM25.5674 4.23145C25.5674 3.49902 25.2656 3.13281 24.6621 3.13281C24.4102 3.13281 24.1875 3.23242 23.9941 3.43164C23.8037 3.63086 23.6851 3.89746 23.6382 4.23145H25.5674Z" fill="#999999"/>
</svg>
