<svg width="59" height="11" viewBox="0 0 59 11" fill="none" xmlns="http://www.w3.org/2000/svg">
<path d="M0.692871 9.2417V8.53809H5.0918V6.44873C4.1071 6.37354 3.34619 6.10856 2.80908 5.65381C2.27197 5.19548 2.00342 4.5957 2.00342 3.85449C2.00342 3.04883 2.32389 2.41683 2.96484 1.9585C3.60938 1.49658 4.45443 1.26562 5.5 1.26562C6.54557 1.26562 7.38704 1.49479 8.02441 1.95312C8.66536 2.40788 8.98584 3.04167 8.98584 3.85449C8.98584 4.5957 8.71729 5.19548 8.18018 5.65381C7.64307 6.10856 6.88574 6.37354 5.9082 6.44873V8.53809H10.3071V9.2417H0.692871ZM2.83594 3.85449C2.83594 4.43815 3.08122 4.90007 3.57178 5.24023C4.06592 5.57682 4.70866 5.74512 5.5 5.74512C6.29134 5.74512 6.9305 5.57503 7.41748 5.23486C7.90804 4.89469 8.15332 4.43457 8.15332 3.85449C8.15332 3.27799 7.90804 2.81966 7.41748 2.47949C6.9305 2.13932 6.29134 1.96924 5.5 1.96924C4.70508 1.96924 4.06234 2.13932 3.57178 2.47949C3.08122 2.81966 2.83594 3.27799 2.83594 3.85449ZM13.4224 0.685547H14.2119V2.90381H19.8999V3.58594H13.4224V0.685547ZM11.6929 5.34766V4.66553H21.3071V5.34766H11.6929ZM13.3311 10.7134V8.24268H18.9116V7.1416H13.3311V6.44873H19.7012V8.87646H14.126V10.0205H19.9751V10.7134H13.3311ZM30.6152 10.8799V0.519043H31.4155V10.8799H30.6152ZM26.2109 6.25C25.4375 6.25 24.7876 6.01546 24.2612 5.54639C23.7349 5.07731 23.4717 4.48649 23.4717 3.77393C23.4717 3.07568 23.7331 2.49023 24.2559 2.01758C24.7786 1.54492 25.4303 1.30859 26.2109 1.30859C26.988 1.30859 27.6379 1.54671 28.1606 2.02295C28.687 2.49919 28.9502 3.08285 28.9502 3.77393C28.9502 4.49007 28.6888 5.08268 28.166 5.55176C27.6432 6.01725 26.9915 6.25 26.2109 6.25ZM26.2109 2.01758C25.6667 2.01758 25.2119 2.18229 24.8467 2.51172C24.4814 2.84115 24.2988 3.26188 24.2988 3.77393C24.2988 4.29313 24.485 4.71745 24.8574 5.04688C25.2334 5.37272 25.6846 5.53564 26.2109 5.53564C26.7516 5.53564 27.2064 5.37272 27.5752 5.04688C27.944 4.71745 28.1284 4.29313 28.1284 3.77393C28.1284 3.25472 27.9458 2.83219 27.5806 2.50635C27.2153 2.1805 26.7588 2.01758 26.2109 2.01758ZM22.7896 9L22.7144 8.30713C23.6382 8.30713 24.9272 8.28923 26.5815 8.25342C28.2394 8.21761 29.3405 8.17643 29.8848 8.12988L29.9331 8.82275C29.3709 8.8693 28.2609 8.91048 26.603 8.94629C24.9487 8.9821 23.6776 9 22.7896 9ZM45.2622 10.8799V0.519043H46.0625V10.8799H45.2622ZM43.1836 1.4751C43.1585 2.91097 42.7467 4.22868 41.9482 5.42822C41.1497 6.62419 40.0057 7.63574 38.5161 8.46289L37.9038 7.81299C38.9995 7.35824 39.9681 6.63851 40.8096 5.65381C41.651 4.66911 42.1559 3.51432 42.3242 2.18945H38.3281V1.4751H43.1836ZM50.166 4.76758V0.792969H50.9717V2.13574H55.7627V0.792969H56.5576V4.76758H50.166ZM55.7627 2.8501H50.9717V4.05859H55.7627V2.8501ZM53.8076 6.71191V9.06445H53.002V6.71191H48.5601V5.99756H58.1743V6.71191H53.8076ZM50.0801 10.5737V7.60352H50.8804V9.85938H56.8315V10.5737H50.0801Z" fill="black"/>
</svg>
