<svg width="12" height="12" viewBox="0 0 12 12" fill="none" xmlns="http://www.w3.org/2000/svg">
<g clip-path="url(#clip0_6602_1632)">
<path d="M4.5 5.875C4.155 5.875 3.875 6.155 3.875 6.5C3.875 6.845 4.155 7.125 4.5 7.125C4.845 7.125 5.125 6.845 5.125 6.5C5.125 6.155 4.845 5.875 4.5 5.875ZM7.5 5.875C7.155 5.875 6.875 6.155 6.875 6.5C6.875 6.845 7.155 7.125 7.5 7.125C7.845 7.125 8.125 6.845 8.125 6.5C8.125 6.155 7.845 5.875 7.5 5.875ZM6 1C3.24 1 1 3.24 1 6C1 8.76 3.24 11 6 11C8.76 11 11 8.76 11 6C11 3.24 8.76 1 6 1ZM6 10C3.795 10 2 8.205 2 6C2 5.855 2.01 5.71 2.025 5.57C3.205 5.045 4.14 4.08 4.63 2.885C5.535 4.165 7.025 5 8.71 5C9.1 5 9.475 4.955 9.835 4.87C9.94 5.225 10 5.605 10 6C10 8.205 8.205 10 6 10Z" fill="black"/>
</g>
<defs>
<clipPath id="clip0_6602_1632">
<rect width="12" height="12" fill="white"/>
</clipPath>
</defs>
</svg>
