<svg width="44" height="9" viewBox="0 0 44 9" fill="none" xmlns="http://www.w3.org/2000/svg">
<path d="M6.60498 6.35205V0.313965H7.68604V6.35205H6.60498ZM3.12451 5.13916C2.46826 5.13916 1.9248 4.92969 1.49414 4.51074C1.06348 4.08887 0.848145 3.55127 0.848145 2.89795C0.848145 2.23877 1.06348 1.69971 1.49414 1.28076C1.9248 0.858887 2.46826 0.647949 3.12451 0.647949C3.78076 0.647949 4.32422 0.857422 4.75488 1.27637C5.18555 1.69531 5.40088 2.23584 5.40088 2.89795C5.40088 3.5542 5.18555 4.0918 4.75488 4.51074C4.32422 4.92969 3.78076 5.13916 3.12451 5.13916ZM3.12451 1.5752C2.77295 1.5752 2.48438 1.69678 2.25879 1.93994C2.03613 2.18311 1.9248 2.50244 1.9248 2.89795C1.9248 3.29053 2.03613 3.6084 2.25879 3.85156C2.48438 4.0918 2.77295 4.21191 3.12451 4.21191C3.48193 4.21191 3.77051 4.0918 3.99023 3.85156C4.20996 3.6084 4.31982 3.29053 4.31982 2.89795C4.31982 2.51123 4.2085 2.19482 3.98584 1.94873C3.76318 1.69971 3.47607 1.5752 3.12451 1.5752ZM2.21484 8.49658V5.69727H3.32227V7.56934H7.84863V8.49658H2.21484ZM16.5322 4.94141C15.9287 4.7627 15.3442 4.48584 14.7788 4.11084C14.2134 3.73584 13.7842 3.34033 13.4912 2.92432C13.2012 3.35498 12.7764 3.75928 12.2168 4.13721C11.6602 4.51514 11.0713 4.78613 10.4502 4.9502L9.80859 4.09326C10.8164 3.87354 11.5898 3.50586 12.1289 2.99023C12.6709 2.47168 12.9419 1.97217 12.9419 1.4917V0.863281H14.0581V1.4917C14.0581 1.96045 14.3276 2.4585 14.8667 2.98584C15.4087 3.51025 16.1777 3.87939 17.1738 4.09326L16.5322 4.94141ZM9.56689 7.52979V6.62451H17.4331V7.52979H9.56689ZM25.3081 4.45361V8.79102H24.2095V0.313965H25.3081V3.52637H26.7231V4.45361H25.3081ZM20.0962 4.146V5.53467H20.5312C21.9492 5.53467 22.9629 5.49219 23.5723 5.40723L23.6689 6.31689C23.0156 6.40771 21.9155 6.45312 20.3687 6.45312H18.9976V1.03467H23.1284V1.96191H20.0962V3.2583H22.8252V4.146H20.0962ZM35.4331 7.34082C34.689 7.34961 34.0913 7.354 33.6401 7.354H32.5854L27.5669 7.34082V6.43555H32.8931C33.0249 5.58594 33.0908 4.59863 33.0908 3.47363V2.04102H28.6216V1.13135H34.1982V3.16602C34.1982 4.1709 34.1265 5.26074 33.9829 6.43555H35.4331V7.34082ZM42.8291 5.20068V3.39893H42.1655V5.20068H41.0845V0.485352H42.1655V2.47607H42.8291V0.313965H43.9189V5.20068H42.8291ZM40.7988 4.81396C40.0371 4.91064 39.0586 4.95898 37.8633 4.95898H36.8262V2.32227H39.2036V1.55762H36.8262V0.647949H40.2935V3.21875H37.916V4.05811H38.7246C39.4893 4.05811 40.144 4.01562 40.689 3.93066L40.7988 4.81396ZM38.5093 8.61084V5.56104H43.9189V8.61084H38.5093ZM42.8291 6.48828H39.5991V7.69238H42.8291V6.48828Z" fill="#999999"/>
</svg>
