<svg width="18" height="9" viewBox="0 0 18 9" fill="none" xmlns="http://www.w3.org/2000/svg">
<path d="M6.59619 8.79102V0.313965H7.68604V8.79102H6.59619ZM3.09814 6.72998C2.42432 6.72998 1.88379 6.46484 1.47656 5.93457C1.06934 5.4043 0.865723 4.68945 0.865723 3.79004C0.865723 2.87598 1.06787 2.1582 1.47217 1.63672C1.87939 1.11523 2.42139 0.854492 3.09814 0.854492C3.77197 0.854492 4.30957 1.11816 4.71094 1.64551C5.11523 2.16992 5.31738 2.88477 5.31738 3.79004C5.31738 4.69824 5.1167 5.41602 4.71533 5.94336C4.31396 6.46777 3.7749 6.72998 3.09814 6.72998ZM3.09814 1.79053C2.76123 1.79053 2.48438 1.9707 2.26758 2.33105C2.05078 2.69141 1.94238 3.18066 1.94238 3.79883C1.94238 4.4082 2.05371 4.89453 2.27637 5.25781C2.49902 5.62109 2.77295 5.80273 3.09814 5.80273C3.42041 5.80273 3.69287 5.62402 3.91553 5.2666C4.13818 4.90625 4.24951 4.41699 4.24951 3.79883C4.24951 3.18066 4.14111 2.69141 3.92432 2.33105C3.71045 1.9707 3.43506 1.79053 3.09814 1.79053ZM10.8105 3.94824V1.74658H15.0908V1.31152H10.8105V0.415039H16.1895V2.56396H11.9092V3.05176H16.3784V3.94824H10.8105ZM9.56689 5.37207V4.45361H17.4331V5.37207H9.56689ZM10.7271 8.62842V5.87744H16.2817V8.62842H10.7271ZM15.1831 6.7959H11.8257V7.70996H15.1831V6.7959Z" fill="#999999"/>
</svg>
